<svg xmlns="http://www.w3.org/2000/svg" width="500" height="500" style="width:100%;height:100%;transform:translate3d(0,0,0);content-visibility:visible" viewBox="0 0 500 500"><defs><clipPath id="a"><path d="M0 0h500v500H0z"/></clipPath><clipPath id="c"><path d="M0 0h500v500H0z"/></clipPath><clipPath id="b"><path d="M0 0h500v500H0z"/></clipPath></defs><g clip-path="url(#a)"><g clip-path="url(#b)" style="display:block"><g fill="none" class="primary design" style="display:none"><path class="primary"/><path class="primary"/></g><g class="primary design" style="display:none"><path fill="none" class="primary"/></g><g class="primary design" style="display:none"><path fill="none" class="primary"/></g><g class="primary design" style="display:block"><path fill="#121331" d="M442.707 385.395H169.909l193.644-193.642c15.271-15.273 15.27-40.123-.001-55.394l-41.577-41.576c-15.273-15.271-40.122-15.271-55.395 0L46.222 315.141a15.651 15.651 0 0 0-4.584 11.067v74.837c0 8.643 7.006 15.649 15.65 15.649h67.699l.01.001h317.71c8.644 0 15.65-7.007 15.65-15.65s-7.006-15.65-15.65-15.65zM288.713 116.916c3.068-3.068 8.061-3.068 11.129 0l41.577 41.576c3.068 3.068 3.068 8.061 0 11.129l-38.826 38.826-52.705-52.706 38.825-38.825zM72.938 332.69l154.817-154.816 52.705 52.706-154.815 154.815H72.938V332.69z" class="primary"/></g><g class="primary design" style="display:none"><path class="primary"/></g></g><g clip-path="url(#c)" style="display:none"><g class="primary design" style="display:none"><path fill="none" class="primary"/></g><g class="primary design" style="display:none"><path fill="none" class="primary"/></g><g class="primary design" style="display:none"><path class="primary"/></g></g></g></svg>